<svg xmlns="http://www.w3.org/2000/svg" viewBox="0 0 512 512" role="img" aria-label="DinoQuiz">
  <rect width="512" height="512" rx="96" fill="#2E7D32"/>
  <g fill="#A5D6A7" stroke="#1B5E20" stroke-width="10" stroke-linejoin="round">
    <path d="M120 360c0-70 30-120 90-150 10-40 45-70 90-70 45 0 60 30 60 55 25 5 45 25 45 55 0 15-10 25-25 25 5 15-5 30-20 30-5 25-30 40-55 35 0 25-20 45-45 45h-30l-10 30h-40l5-35c-40-5-75-25-70-70l-45 5c-10 0-15-15-5-25z"/>
    <circle cx="330" cy="205" r="12" fill="#1B5E20" stroke="none"/>
    <path d="M175 300l-15 55 40-30" fill="#A5D6A7"/>
  </g>
</svg>
