<?xml version="1.0" encoding="UTF-8"?>
<svg xmlns="http://www.w3.org/2000/svg" width="512" height="512" viewBox="0 0 512 512" role="img" aria-label="DinoQuiz">
  <title>DinoQuiz</title>
  <defs>
    <clipPath id="rounded">
      <rect x="0" y="0" width="512" height="512" rx="96" ry="96"/>
    </clipPath>
  </defs>
  <g clip-path="url(#rounded)">
    <rect x="0" y="0" width="512" height="512" fill="#FFF8E1"/>
    <rect x="0" y="352" width="512" height="160" fill="#A5D6A7"/>
    <!-- Cartoon dinosaur silhouette -->
    <g fill="#2E7D32">
      <path d="M120 372c-8-52 6-104 44-140 30-28 72-42 114-40-6-26 6-52 30-64-6 18 0 36 14 48 34 10 62 36 76 72 10 26 12 54 8 82l-40 0c2-22 0-44-10-64-14-28-42-48-74-52-40-6-82 8-108 40-24 30-34 70-28 108z"/>
      <path d="M120 372l0 40c0 14 12 26 26 26s26-12 26-26l0-24z"/>
      <path d="M356 372l0 40c0 14 12 26 26 26s26-12 26-26l0-32z"/>
      <path d="M300 148c30-14 66-14 96 2-18-30-52-48-88-46z"/>
    </g>
    <!-- Belly -->
    <path d="M180 300c30 34 78 46 120 34-4 24-24 44-50 48-40 6-78-24-84-64z" fill="#81C784"/>
    <!-- Eye -->
    <circle cx="330" cy="150" r="16" fill="#FFFFFF"/>
    <circle cx="336" cy="152" r="8" fill="#1B5E20"/>
    <!-- Spikes -->
    <g fill="#F9A825">
      <path d="M150 232l24-40 24 40z"/>
      <path d="M204 210l24-40 24 40z"/>
      <path d="M258 200l24-40 24 40z"/>
    </g>
  </g>
</svg>
