<svg xmlns="http://www.w3.org/2000/svg" viewBox="0 0 512 512" role="img" aria-label="DinoQuiz">
  <rect width="512" height="512" rx="96" fill="#2E7D32" />
  <g fill="#FFF8E1">
    <path d="M150 360c0-70 40-130 60-150 8-8 18-14 30-16-4-14-4-30 4-46 10-20 30-34 52-36 4-14 16-26 32-30 4 20 0 38-10 52 18 6 32 20 38 38 16-2 32 4 42 16 14-16 34-26 56-26 4 22-4 44-22 58 10 16 14 36 10 54 24 10 40 32 42 58 2 24-8 46-26 60-8 32-36 56-70 58-4 12-16 20-30 20-10 0-20-6-26-14-10 8-22 12-34 12-46 0-84-36-88-82-2-10-2-20 0-30-24-4-44-22-50-46-4-16-2-32 6-46-8-2-14-8-16-16-10 4-18 12-22 22-6 16-6 34 2 48 4 8 2 18-4 24-6 6-16 8-24 4-10-4-16-14-16-24z" />
  </g>
  <circle cx="330" cy="230" r="14" fill="#2E7D32" />
</svg>
